<?xml version="1.0" standalone="no"?>
<!DOCTYPE svg PUBLIC "-//W3C//DTD SVG 20010904//EN"
 "http://www.w3.org/TR/2001/REC-SVG-20010904/DTD/svg10.dtd">
<svg version="1.0" xmlns="http://www.w3.org/2000/svg"
 width="600.000000pt" height="559.000000pt" viewBox="0 0 600.000000 559.000000"
 preserveAspectRatio="xMidYMid meet">

<g transform="translate(0.000000,559.000000) scale(0.100000,-0.100000)"
fill="#000000" stroke="none">
<path d="M598 5580 c-242 -42 -451 -196 -542 -403 -59 -132 -56 -8 -56 -2382
0 -2374 -3 -2250 56 -2382 79 -180 252 -325 459 -385 l80 -23 2405 0 2405 0
80 23 c207 60 380 205 459 385 59 132 56 8 56 2382 0 2374 3 2250 -56 2382
-78 177 -248 321 -454 385 l-75 23 -2385 1 c-1312 1 -2406 -2 -2432 -6z m3855
-528 c251 -117 313 -447 119 -641 -163 -163 -419 -159 -575 8 -81 86 -112 176
-105 300 7 126 72 237 180 308 106 71 262 81 381 25z m-548 -680 c39 -18 121
-94 372 -345 l323 -321 267 266 c293 290 298 294 403 286 128 -9 214 -132 180
-258 -10 -37 -55 -87 -336 -376 -179 -183 -350 -349 -380 -370 -47 -32 -65
-39 -119 -42 -99 -6 -134 18 -352 245 -103 107 -190 192 -194 191 -9 -4 -583
-667 -588 -680 -2 -5 127 -141 286 -301 308 -310 304 -305 319 -418 5 -35 -28
-195 -155 -764 -89 -396 -168 -743 -176 -770 -41 -144 -217 -227 -352 -166
-88 41 -153 140 -153 235 0 23 58 298 130 611 l129 570 -307 302 c-169 166
-309 302 -312 303 -3 0 -129 -138 -280 -306 -167 -186 -289 -314 -314 -329
-92 -54 -123 -56 -799 -53 l-622 3 -46 27 c-90 53 -131 124 -132 228 -1 107
55 191 159 237 36 16 78 17 534 14 l495 -3 675 783 c371 430 681 791 688 801
13 17 6 18 -165 18 l-179 0 -324 -375 c-362 -419 -364 -421 -470 -413 -101 7
-171 74 -185 175 -11 81 8 108 380 535 419 481 400 462 468 478 17 5 268 8
557 7 525 -2 525 -2 575 -25z"/>
</g>
</svg>
