<?xml version="1.0" standalone="no"?>
<!DOCTYPE svg PUBLIC "-//W3C//DTD SVG 20010904//EN"
 "http://www.w3.org/TR/2001/REC-SVG-20010904/DTD/svg10.dtd">
<svg version="1.0" xmlns="http://www.w3.org/2000/svg"
 width="64.000000pt" height="64.000000pt" viewBox="0 0 64.000000 64.000000"
 preserveAspectRatio="xMidYMid meet">

<g transform="translate(0.000000,64.000000) scale(0.100000,-0.100000)"
fill="#000000" stroke="none">
<path d="M401 593 c-16 -11 -21 -23 -19 -46 6 -64 98 -56 98 8 0 39 -46 62
-79 38z"/>
<path d="M224 439 c-14 -28 -23 -57 -20 -65 10 -26 35 -14 56 26 13 26 27 40
40 40 11 0 20 -2 20 -5 0 -3 -25 -52 -56 -110 l-57 -104 -66 -3 c-58 -3 -66
-5 -66 -23 0 -18 8 -20 82 -23 l83 -3 22 46 c12 25 27 45 33 45 6 0 26 -15 44
-34 32 -33 33 -36 30 -108 -4 -68 -3 -73 17 -76 18 -3 22 4 28 44 13 100 9
125 -30 165 l-36 37 32 61 c18 34 36 61 39 61 4 0 23 -12 44 -26 21 -14 45
-23 52 -20 14 5 55 76 55 96 0 25 -33 22 -55 -5 l-22 -29 -50 32 c-44 28 -58
32 -121 32 l-72 0 -26 -51z"/>
</g>
</svg>
